HIERARCHY
ROOT Pelvis
{
	OFFSET 0.000000 0.941512 0.000000
	CHANNELS 6 Xposition Yposition Zposition Zrotation Yrotation Xrotation 
	JOINT Pelvis_L_Hip
	{
		OFFSET 0.000000 0.000000 0.000000
		CHANNELS 3 Zrotation Yrotation Xrotation
		JOINT L_Hip
		{
			OFFSET 0.062321 -0.080322 -0.016990
			CHANNELS 3 Zrotation Yrotation Xrotation
			JOINT L_Knee
			{
				OFFSET 0.093051 -0.381305 -0.029784
				CHANNELS 3 Zrotation Yrotation Xrotation
				JOINT L_Ankle
				{
					OFFSET -0.010371 -0.431000 -0.033614
					CHANNELS 3 Zrotation Yrotation Xrotation
					End Site #name: L_Foot
					{
						OFFSET 0.069299 -0.038670 0.119418
					}
				}
			}
		}
	}
	JOINT Pelvis_R_Hip
	{
		OFFSET 0.000000 0.000000 0.000000
		CHANNELS 3 Zrotation Yrotation Xrotation
		JOINT R_Hip
		{
			OFFSET -0.055334 -0.094904 -0.002373
			CHANNELS 3 Zrotation Yrotation Xrotation
			JOINT R_Knee
			{
				OFFSET -0.064207 -0.384370 -0.019592
				CHANNELS 3 Zrotation Yrotation Xrotation
				JOINT R_Ankle
				{
					OFFSET 0.025418 -0.419734 -0.065953
					CHANNELS 3 Zrotation Yrotation Xrotation
					End Site #name: R_Foot
					{
						OFFSET -0.057233 -0.039888 0.132134
					}
				}
			}
		}
	}
	JOINT Pelvis_Spine1
	{
		OFFSET 0.000000 0.000000 0.000000
		CHANNELS 3 Zrotation Yrotation Xrotation
		JOINT Spine1
		{
			OFFSET -0.005562 0.124093 -0.043360
			CHANNELS 3 Zrotation Yrotation Xrotation
			JOINT Spine2
			{
				OFFSET 0.012244 0.139499 0.029894
				CHANNELS 3 Zrotation Yrotation Xrotation
				JOINT Spine3
				{
					OFFSET -0.002556 0.056561 0.009225
					CHANNELS 3 Zrotation Yrotation Xrotation
					JOINT Spine3_Neck
					{
						OFFSET 0.000000 0.000000 0.000000
						CHANNELS 3 Zrotation Yrotation Xrotation
						JOINT Neck
						{
							OFFSET -0.005205 0.217920 -0.024551
							CHANNELS 3 Zrotation Yrotation Xrotation
							End Site #name: Head
							{
								OFFSET 0.002365 0.091850 0.046637
							}
						}
					}
					JOINT Spine3_L_Collar
					{
						OFFSET 0.000000 0.000000 0.000000
						CHANNELS 3 Zrotation Yrotation Xrotation
						JOINT L_Collar
						{
							OFFSET 0.072225 0.116603 -0.009480
							CHANNELS 3 Zrotation Yrotation Xrotation
							JOINT L_Shoulder
							{
								OFFSET 0.115937 -0.058643 -0.021018
								CHANNELS 3 Zrotation Yrotation Xrotation
								JOINT L_Elbow
								{
									OFFSET 0.021994 -0.254722 -0.024492
									CHANNELS 3 Zrotation Yrotation Xrotation
									End Site #name: L_Wrist
									{
										OFFSET 0.048810 -0.240214 0.103329
									}
								}
							}
						}
					}
					JOINT Spine3_R_Collar
					{
						OFFSET 0.000000 0.000000 0.000000
						CHANNELS 3 Zrotation Yrotation Xrotation
						JOINT R_Collar
						{
							OFFSET -0.073372 0.120704 -0.024611
							CHANNELS 3 Zrotation Yrotation Xrotation
							JOINT R_Shoulder
							{
								OFFSET -0.108089 -0.054969 -0.020504
								CHANNELS 3 Zrotation Yrotation Xrotation
								JOINT R_Elbow
								{
									OFFSET -0.033684 -0.260739 0.009889
									CHANNELS 3 Zrotation Yrotation Xrotation
									End Site #name: R_Wrist
									{
										OFFSET -0.067980 -0.232763 0.118463
									}
								}
							}
						}
					}
				}
			}
		}
	}
}
MOTION
Frames: 16
Frame Time: 0.041667
0.000000 0.948852 0.000000 -2.536587 -1.923254 -1.097864 0.000000 0.000000 0.000000 -4.841464 0.302644 -0.229586 4.452231 -0.790427 6.962656 -3.499577 -17.294689 -2.494898 0.000000 0.000000 0.000000 5.651274 -1.004347 3.303424 -3.093390 0.189013 -3.323792 7.308587 18.238019 3.653916 0.000000 0.000000 0.000000 3.834671 0.404422 -10.141173 -6.891903 5.108378 33.022220 3.357501 1.649115 -27.312189 0.000000 0.000000 0.000000 1.060576 -0.915372 11.140693 0.000000 0.000000 0.000000 16.552044 -9.379846 -3.660982 -15.045316 1.659325 3.543958 -5.337748 -1.698755 2.345402 0.000000 0.000000 0.000000 -13.977550 6.109640 -1.388752 18.165498 -1.233948 9.010186 4.034984 2.154156 -0.232183 
0.000368 0.948675 -0.000071 -2.567754 -1.951672 -1.066967 0.000000 0.000000 0.000000 -4.850218 0.301208 -0.237494 4.493684 -0.793384 6.916054 -3.523259 -17.284748 -2.456061 0.000000 0.000000 0.000000 5.670985 -0.992647 3.240172 -3.121985 0.196560 -3.276415 7.344692 18.292408 3.686787 0.000000 0.000000 0.000000 3.842622 0.385188 -9.995645 -6.997016 5.085134 32.476377 3.393004 1.653759 -26.892971 0.000000 0.000000 0.000000 1.071092 -0.917096 11.049132 0.000000 0.000000 0.000000 16.921630 -9.346272 -3.601086 -15.109456 1.708283 3.694607 -5.119300 -1.524742 2.667408 0.000000 0.000000 0.000000 -14.085761 6.103289 -1.363797 18.267078 -1.217567 8.919672 3.927520 2.030297 -0.036393 
0.000840 0.948693 -0.000369 -2.591061 -1.990530 -1.031290 0.000000 0.000000 0.000000 -4.848780 0.310773 -0.204806 4.486168 -0.781712 6.744928 -3.587788 -17.269610 -2.354254 0.000000 0.000000 0.000000 5.671755 -0.975028 3.157138 -3.131007 0.200888 -3.238629 7.378053 18.300681 3.737852 0.000000 0.000000 0.000000 3.815726 0.380207 -9.924739 -7.001498 5.083089 32.407543 3.375024 1.635496 -26.835820 0.000000 0.000000 0.000000 1.048763 -0.898409 10.935690 0.000000 0.000000 0.000000 17.089090 -9.258864 -3.524475 -14.868664 1.741532 3.933972 -4.950595 -1.383637 2.945752 0.000000 0.000000 0.000000 -14.073490 5.982684 -1.281285 18.286543 -1.180169 8.791328 3.816387 1.947976 0.034731 
0.001238 0.948749 -0.000795 -2.612159 -2.047381 -1.013987 0.000000 0.000000 0.000000 -4.872159 0.299704 -0.248964 4.507587 -0.785694 6.760820 -3.580907 -17.206551 -2.339894 0.000000 0.000000 0.000000 5.682837 -0.955865 3.064060 -3.153318 0.210279 -3.162350 7.388944 18.314794 3.747566 0.000000 0.000000 0.000000 3.807940 0.363969 -9.785701 -7.014025 5.079932 32.307455 3.342287 1.629420 -26.817873 0.000000 0.000000 0.000000 1.018491 -0.874085 10.796395 0.000000 0.000000 0.000000 17.198284 -9.184944 -3.462785 -14.628797 1.778795 4.200985 -4.830423 -1.302259 3.071298 0.000000 0.000000 0.000000 -14.066109 6.012558 -1.300637 18.347774 -1.175576 8.776899 3.844743 1.960814 0.040292 
0.001619 0.948792 -0.001429 -2.641845 -2.073736 -1.028898 0.000000 0.000000 0.000000 -4.909342 0.253674 -0.416174 4.566599 -0.812676 7.058399 -3.491895 -17.123325 -2.440557 0.000000 0.000000 0.000000 5.713246 -0.937447 2.969238 -3.186624 0.225724 -3.035733 7.380528 18.307172 3.736584 0.000000 0.000000 0.000000 3.808768 0.338878 -9.576465 -7.029029 5.068282 32.152743 3.329395 1.628371 -26.774654 0.000000 0.000000 0.000000 0.988787 -0.851503 10.663973 0.000000 0.000000 0.000000 17.276195 -9.115677 -3.405660 -14.482604 1.797210 4.343150 -4.769768 -1.243044 3.206728 0.000000 0.000000 0.000000 -14.079954 6.042830 -1.318101 18.428822 -1.154791 8.705305 3.962903 2.011395 0.071825 
0.002130 0.948846 -0.002319 -2.662038 -2.036247 -1.057602 0.000000 0.000000 0.000000 -4.922534 0.225394 -0.516507 4.570335 -0.821109 7.184673 -3.486708 -17.121070 -2.446807 0.000000 0.000000 0.000000 5.719390 -0.906696 2.827590 -3.198060 0.247502 -2.809266 7.329929 18.238831 3.686010 0.000000 0.000000 0.000000 3.777008 0.318665 -9.372518 -7.019258 5.043356 32.039008 3.332011 1.624812 -26.727970 0.000000 0.000000 0.000000 0.977659 -0.843221 10.590396 0.000000 0.000000 0.000000 17.291851 -9.096134 -3.387725 -14.423194 1.802009 4.387303 -4.723129 -1.209025 3.266436 0.000000 0.000000 0.000000 -14.083833 6.094060 -1.353688 18.459302 -1.135547 8.636237 4.114184 2.107948 0.020220 
0.002742 0.948908 -0.003034 -2.679417 -2.004721 -1.149183 0.000000 0.000000 0.000000 -4.957060 0.211269 -0.571134 4.592835 -0.836402 7.374473 -3.463250 -17.121063 -2.480969 0.000000 0.000000 0.000000 5.712151 -0.891455 2.764468 -3.205562 0.268910 -2.579302 7.289627 18.188288 3.643471 0.000000 0.000000 0.000000 3.728895 0.302358 -9.180075 -7.033498 5.037278 31.978028 3.384808 1.661865 -26.677027 0.000000 0.000000 0.000000 0.972260 -0.841512 10.581486 0.000000 0.000000 0.000000 17.316881 -9.128206 -3.404384 -14.535437 1.800147 4.326654 -4.676093 -1.188480 3.272942 0.000000 0.000000 0.000000 -14.138407 6.204984 -1.422895 18.578712 -1.150803 8.681773 4.203545 2.219138 -0.165207 
0.003347 0.948979 -0.003494 -2.703440 -1.980267 -1.259602 0.000000 0.000000 0.000000 -4.983384 0.205114 -0.595748 4.615737 -0.853140 7.585864 -3.423548 -17.130170 -2.543946 0.000000 0.000000 0.000000 5.708936 -0.892479 2.776079 -3.219372 0.284615 -2.425800 7.269871 18.159208 3.625776 0.000000 0.000000 0.000000 3.667885 0.301067 -9.092879 -7.044785 5.044999 32.004359 3.465067 1.733970 -26.632362 0.000000 0.000000 0.000000 0.985832 -0.855782 10.671568 0.000000 0.000000 0.000000 17.288646 -9.175244 -3.434313 -14.680051 1.791707 4.224568 -4.715615 -1.246537 3.107911 0.000000 0.000000 0.000000 -14.204794 6.329398 -1.502819 18.620633 -1.233577 8.948512 4.367548 2.476241 -0.652191 
0.003975 0.949026 -0.003763 -2.743566 -1.941503 -1.288335 0.000000 0.000000 0.000000 -4.985529 0.184034 -0.668512 4.624772 -0.863130 7.722761 -3.421461 -17.128585 -2.545374 0.000000 0.000000 0.000000 5.742683 -0.882914 2.722020 -3.250727 0.300273 -2.299048 7.242363 18.105693 3.606286 0.000000 0.000000 0.000000 3.648874 0.301627 -9.075167 -7.063894 5.042789 31.959296 3.527809 1.825610 -26.571938 0.000000 0.000000 0.000000 0.982631 -0.863038 10.799975 0.000000 0.000000 0.000000 17.261270 -9.174402 -3.426880 -14.836908 1.778915 4.098746 -4.897498 -1.400718 2.794919 0.000000 0.000000 0.000000 -14.306235 6.454358 -1.580580 18.687729 -1.327264 9.248751 4.469354 2.703272 -1.140498 
0.004713 0.949074 -0.003898 -2.747319 -1.934319 -1.272647 0.000000 0.000000 0.000000 -5.009727 0.202991 -0.609864 4.601671 -0.847250 7.525013 -3.514122 -17.160680 -2.419399 0.000000 0.000000 0.000000 5.729425 -0.864768 2.642314 -3.274464 0.310410 -2.221649 7.230418 18.074907 3.601367 0.000000 0.000000 0.000000 3.670243 0.301986 -9.102940 -7.123327 5.063433 31.911836 3.556427 1.900093 -26.573829 0.000000 0.000000 0.000000 0.965428 -0.863408 10.989393 0.000000 0.000000 0.000000 17.334862 -9.195801 -3.429003 -15.115535 1.779962 3.992205 -5.090726 -1.567666 2.457029 0.000000 0.000000 0.000000 -14.508869 6.609236 -1.662609 18.918204 -1.370795 9.388508 4.462480 2.741531 -1.258679 
0.005459 0.949178 -0.003698 -2.741662 -1.976674 -1.324927 0.000000 0.000000 0.000000 -5.070929 0.256732 -0.438598 4.628289 -0.837560 7.311225 -3.563247 -17.183057 -2.355447 0.000000 0.000000 0.000000 5.696287 -0.870388 2.682618 -3.289376 0.313004 -2.215327 7.243304 18.125751 3.596968 0.000000 0.000000 0.000000 3.679746 0.303096 -9.118948 -7.203018 5.105096 31.899399 3.614212 1.984791 -26.595836 0.000000 0.000000 0.000000 0.960974 -0.870351 11.185062 0.000000 0.000000 0.000000 17.474658 -9.222676 -3.430329 -15.478959 1.780649 3.854770 -5.233672 -1.711918 2.131911 0.000000 0.000000 0.000000 -14.713865 6.707077 -1.704679 19.182409 -1.394943 9.466012 4.376722 2.707745 -1.293599 
0.005987 0.949126 -0.003635 -2.725398 -1.968048 -1.402351 0.000000 0.000000 0.000000 -5.141573 0.282981 -0.364611 4.669947 -0.843048 7.306620 -3.572448 -17.223873 -2.358018 0.000000 0.000000 0.000000 5.677571 -0.885426 2.762224 -3.333405 0.318000 -2.227448 7.237240 18.143879 3.578089 0.000000 0.000000 0.000000 3.653861 0.297946 -9.044610 -7.224511 5.102709 31.820424 3.634802 2.013228 -26.625490 0.000000 0.000000 0.000000 0.984610 -0.887842 11.251707 0.000000 0.000000 0.000000 17.508830 -9.272825 -3.461366 -15.696918 1.774593 3.747109 -5.338694 -1.821835 1.881241 0.000000 0.000000 0.000000 -14.757587 6.691774 -1.690149 19.252414 -1.400609 9.485361 4.307066 2.659706 -1.263670 
0.006494 0.949112 -0.003799 -2.706463 -1.938161 -1.448405 0.000000 0.000000 0.000000 -5.182656 0.291278 -0.345352 4.653592 -0.841586 7.319555 -3.584926 -17.263086 -2.354254 0.000000 0.000000 0.000000 5.649311 -0.887322 2.783208 -3.371013 0.325671 -2.200643 7.231083 18.133066 3.573958 0.000000 0.000000 0.000000 3.624338 0.294386 -8.978838 -7.205119 5.077363 31.727344 3.634367 1.986300 -26.608073 0.000000 0.000000 0.000000 1.004947 -0.895764 11.162509 0.000000 0.000000 0.000000 17.506272 -9.347311 -3.516787 -15.783989 1.765677 3.672369 -5.501450 -1.935762 1.709891 0.000000 0.000000 0.000000 -14.757003 6.562107 -1.600401 19.212305 -1.372449 9.393095 4.270353 2.635657 -1.251469 
0.006966 0.949117 -0.004124 -2.719349 -1.905708 -1.485236 0.000000 0.000000 0.000000 -5.194876 0.290119 -0.351611 4.652583 -0.843571 7.352271 -3.597540 -17.289581 -2.346042 0.000000 0.000000 0.000000 5.653972 -0.886308 2.778620 -3.394398 0.333391 -2.152271 7.224809 18.114165 3.574015 0.000000 0.000000 0.000000 3.637508 0.286773 -8.925110 -7.165080 5.041757 31.629261 3.622475 1.923371 -26.541491 0.000000 0.000000 0.000000 1.017321 -0.897905 11.070992 0.000000 0.000000 0.000000 17.559541 -9.423004 -3.569880 -15.859685 1.760760 3.613234 -5.641639 -2.032330 1.570480 0.000000 0.000000 0.000000 -14.803745 6.421863 -1.493953 19.180206 -1.315239 9.202646 4.313953 2.633051 -1.177874 
0.007372 0.949161 -0.004635 -2.724449 -1.893758 -1.539163 0.000000 0.000000 0.000000 -5.231535 0.304667 -0.309444 4.686312 -0.845636 7.306841 -3.621724 -17.303946 -2.314846 0.000000 0.000000 0.000000 5.635172 -0.881927 2.768018 -3.387628 0.338864 -2.083218 7.219653 18.083781 3.581414 0.000000 0.000000 0.000000 3.651573 0.283772 -8.912530 -7.105116 5.010462 31.619556 3.597586 1.860009 -26.507497 0.000000 0.000000 0.000000 1.003254 -0.887966 11.072560 0.000000 0.000000 0.000000 17.605666 -9.514363 -3.636379 -15.887018 1.753972 3.567971 -5.691178 -2.067367 1.518113 0.000000 0.000000 0.000000 -14.848238 6.440729 -1.496641 19.197561 -1.296498 9.140744 4.302129 2.608942 -1.127641 
0.007583 0.949145 -0.004892 -2.742512 -1.968187 -1.662722 0.000000 0.000000 0.000000 -5.262894 0.393749 -0.009748 4.770465 -0.835586 6.966994 -3.699147 -17.323244 -2.207883 0.000000 0.000000 0.000000 5.652294 -0.901108 2.856050 -3.419218 0.346401 -2.043631 7.240021 18.150479 3.579638 0.000000 0.000000 0.000000 3.653142 0.290337 -8.966454 -7.033564 5.002656 31.769037 3.595044 1.852268 -26.513464 0.000000 0.000000 0.000000 0.969958 -0.867915 11.110399 0.000000 0.000000 0.000000 17.620874 -9.595981 -3.699149 -15.854785 1.748870 3.556950 -5.636559 -2.037097 1.544520 0.000000 0.000000 0.000000 -14.892479 6.629938 -1.616557 19.255135 -1.347054 9.308219 4.228483 2.609345 -1.240736 
